# xmcd CD database file
#
# Track frame offsets:
#	150
#	15436
#	29959
#	38610
#	53172
#	63376
#	75761
#	93367
#	107462
#	129934
#	155279
#	163195
#	173908
#	186892
#	201969
#	215099
#	231562
#	253898
#
# Disc length: 3657 seconds
#
# Revision: 0
# Processed by: cddbd v1.5.2PL0 Copyright (c) Steve Scherf et al.
# Submitted via: CDex 1.70beta2
#
DISCID=f10e4712
DTITLE=Dillabough, Lyle [CDN-OVM-cty-02) Almonte, ON - Sounds Along The Line
DYEAR=2002
DGENRE=Country
TTITLE0=Proud Canadians
TTITLE1=The Year McLaren's Store Burnt Down
TTITLE2=The Ottawa Waltz
TTITLE3=Weekend Lovers
TTITLE4=Shackles and Chains
TTITLE5=Riding With Randy
TTITLE6=Before You Accuse Me - live with Blue Ridge Waters
TTITLE7=A Most Unusual Way
TTITLE8=New England In The Rain
TTITLE9=Twenty-One Years - Canadian version
TTITLE10=Give Me My Flowers While I'm Living
TTITLE11=Grandpa Was A Sailor
TTITLE12=Big Joe Mufferaw - live
TTITLE13=Sail With Me Anna Marie
TTITLE14=Precambrian Shield
TTITLE15=The Watchman
TTITLE16=Will The Circle Be Unbroken - I Saw The Light
TTITLE17=One Lone Voice
EXTD=YEAR: 2002
EXTT0=
EXTT1=
EXTT2=
EXTT3=
EXTT4=
EXTT5=
EXTT6=
EXTT7=
EXTT8=
EXTT9=
EXTT10=
EXTT11=
EXTT12=
EXTT13=
EXTT14=
EXTT15=
EXTT16=
EXTT17=
PLAYORDER=
